<svg xmlns="http://www.w3.org/2000/svg" xmlns:xlink="http://www.w3.org/1999/xlink" width="1920" height="1080" viewBox="0 0 1920 1080">
  <defs>
    <linearGradient id="linear-gradient" x1="0.5" x2="0.5" y2="1" gradientUnits="objectBoundingBox">
      <stop offset="0" stop-color="#00b9ff"/>
      <stop offset="1" stop-color="#67ee9d" stop-opacity="0.98"/>
    </linearGradient>
    <linearGradient id="linear-gradient-2" x1="0.5" x2="0.5" y2="1" gradientUnits="objectBoundingBox">
      <stop offset="0" stop-color="#1700ff"/>
      <stop offset="1" stop-color="#67ee9d" stop-opacity="0.98"/>
    </linearGradient>
    <filter id="_2020_Inertia._All_rights_reserved." x="843" y="972" width="271" height="39" filterUnits="userSpaceOnUse">
      <feOffset dx="5" dy="5" input="SourceAlpha"/>
      <feGaussianBlur stdDeviation="3" result="blur"/>
      <feFlood flood-opacity="0.161"/>
      <feComposite operator="in" in2="blur"/>
      <feComposite in="SourceGraphic"/>
    </filter>
    <filter id="copyright" x="817" y="971.866" width="40.135" height="40.135" filterUnits="userSpaceOnUse">
      <feOffset dx="5" dy="5" input="SourceAlpha"/>
      <feGaussianBlur stdDeviation="3" result="blur-2"/>
      <feFlood flood-opacity="0.161"/>
      <feComposite operator="in" in2="blur-2"/>
      <feComposite in="SourceGraphic"/>
    </filter>
    <clipPath id="clip-Login_-_1_1">
      <rect width="1920" height="1080"/>
    </clipPath>
  </defs>
  <g id="Login_-_1_1" data-name="Login - 1 – 1" clip-path="url(#clip-Login_-_1_1)">
    <rect width="1920" height="1080" fill="#fff"/>
    <ellipse id="Ellipse_2" data-name="Ellipse 2" cx="1244.5" cy="1081" rx="1244.5" ry="1081" transform="translate(-10 -896)" opacity="0.35" fill="url(#linear-gradient)"/>
    <ellipse id="Ellipse_1" data-name="Ellipse 1" cx="1230" cy="1077" rx="1230" ry="1077" transform="translate(-32 -1025)" fill="url(#linear-gradient-2)"/>
    <g transform="matrix(1, 0, 0, 1, 0, 0)" filter="url(#_2020_Inertia._All_rights_reserved.)">
      <text id="_2020_Inertia._All_rights_reserved.-2" data-name="2020 Inertia. All rights reserved." transform="translate(847 993)" fill="#fff" font-size="18" font-family="FuturaBT-Book, Futura Bk BT"><tspan x="0" y="0">2020 Inertia. All rights reserved.</tspan></text>
    </g>
    <g transform="matrix(1, 0, 0, 1, 0, 0)" filter="url(#copyright)">
      <path id="copyright-2" data-name="copyright" d="M11.067,22.134A11.067,11.067,0,0,1,3.241,3.241,11.067,11.067,0,0,1,18.893,18.892a11,11,0,0,1-7.826,3.242Zm0-20.405A9.338,9.338,0,1,0,20.4,11.066,9.349,9.349,0,0,0,11.067,1.728Zm4.555,13.893L14.4,14.4a4.712,4.712,0,1,1,0-6.664l1.223-1.223a6.439,6.439,0,1,0,0,9.11Zm0,0" transform="translate(821 975.87)" fill="#fff"/>
    </g>
    <g id="eternity" transform="translate(44.632 866.928)">
      <path id="Path_6" data-name="Path 6" d="M58.082,29.041A29.041,29.041,0,1,1,29.041,0,29.041,29.041,0,0,1,58.082,29.041Zm0,0" fill="#00767d"/>
      <path id="Path_7" data-name="Path 7" d="M114.536,89.887a10.435,10.435,0,0,0-7.426-3.076h0l-9.8-9.8L91.36,82.954l7.628,7.629-1.681,1.683L94.93,89.887a10.5,10.5,0,0,0-14.853,14.854L101.4,126.065a29.056,29.056,0,0,0,24.657-24.656L114.536,89.887Zm0,0" transform="translate(-68.265 -68.272)" fill="#00585d"/>
      <path id="Path_8" data-name="Path 8" d="M237.4,88.9l5.946-5.946L237.4,77.008l-2.38,5.946Zm0,0" transform="translate(-208.362 -68.272)" fill="#74dce2"/>
      <path id="Path_9" data-name="Path 9" d="M203.586,82.954l5.946,5.946V77.008Zm0,0" transform="translate(-180.491 -68.272)" fill="#adf2f5"/>
      <path id="Path_10" data-name="Path 10" d="M237.4,342.052l5.946-5.946L237.4,330.16l-2.38,5.946Zm0,0" transform="translate(-208.362 -292.706)" fill="#74dce2"/>
      <path id="Path_11" data-name="Path 11" d="M203.586,336.106l5.946,5.946V330.16Zm0,0" transform="translate(-180.491 -292.706)" fill="#adf2f5"/>
      <path id="Path_12" data-name="Path 12" d="M221.622,231.212,224,233.591a3.364,3.364,0,0,0,5.743-2.379l3.569-3.173,3.569,3.173a10.5,10.5,0,0,1-17.93,7.426l-7.421-7.426,5.045-3.173Zm0,0" transform="translate(-187.534 -202.17)" fill="#01939d"/>
      <path id="Path_13" data-name="Path 13" d="M102.351,173.929,94.93,166.5A10.5,10.5,0,0,0,77,173.929l3.569,3.966,3.569-3.966a3.364,3.364,0,0,1,5.743-2.379l2.378,2.378h10.091Zm0,0" transform="translate(-68.265 -144.887)" fill="#74dce2"/>
      <path id="Path_14" data-name="Path 14" d="M273.23,166.5a10.5,10.5,0,0,0-14.853,0L256,168.88v10.1l7.424-7.427a3.364,3.364,0,0,1,5.743,2.379h7.139A10.434,10.434,0,0,0,273.23,166.5Zm0,0" transform="translate(-226.959 -144.886)" fill="#01b1bc"/>
      <path id="Path_15" data-name="Path 15" d="M89.882,218.935a3.364,3.364,0,0,1-5.743-2.379H77a10.5,10.5,0,0,0,17.93,7.426l2.377-2.378v-10.1Zm0,0" transform="translate(-68.265 -187.514)" fill="#3ac7cf"/>
    </g>
    <text id="INERTIA" transform="translate(45 977)" fill="#35d5cf" font-size="45" font-family="TrebuchetMS, Trebuchet MS"><tspan x="0" y="0">INERTIA</tspan></text>
  </g>
</svg>
