<svg id="search" xmlns="http://www.w3.org/2000/svg" width="25" height="25" viewBox="0 0 33 33">
  <path id="Path_2" data-name="Path 2" d="M7.313,149.3l-1.149,4.288-4.2.089a16.529,16.529,0,0,1-.121-15.408h0l3.738.685,1.637,3.715a9.847,9.847,0,0,0,.093,6.63Z" transform="translate(0 -129.356)" fill="#fbbb00"/>
  <path id="Path_3" data-name="Path 3" d="M277.477,208.176a16.494,16.494,0,0,1-5.882,15.95h0l-4.708-.24-.666-4.159a9.834,9.834,0,0,0,4.231-5.022h-8.823v-6.527h15.849Z" transform="translate(-244.765 -194.758)" fill="#518ef8"/>
  <path id="Path_4" data-name="Path 4" d="M55.371,318.833h0a16.505,16.505,0,0,1-24.863-5.048l5.347-4.377A9.813,9.813,0,0,0,50,314.433Z" transform="translate(-28.543 -289.467)" fill="#28b446"/>
  <path id="Path_5" data-name="Path 5" d="M53.811,3.8,48.466,8.175A9.812,9.812,0,0,0,34,13.312l-5.375-4.4h0A16.5,16.5,0,0,1,53.811,3.8Z" transform="translate(-26.779)" fill="#f14336"/>
</svg>
